<?xml version="1.0" standalone="no"?><!DOCTYPE svg PUBLIC "-//W3C//DTD SVG 1.1//EN" "http://www.w3.org/Graphics/SVG/1.1/DTD/svg11.dtd"><svg t="1590466752238" class="icon" viewBox="0 0 1024 1024" version="1.1" xmlns="http://www.w3.org/2000/svg" p-id="3004" width="48" height="48" xmlns:xlink="http://www.w3.org/1999/xlink"><defs><style type="text/css"></style></defs><path d="M512 981.333333c259.2 0 469.333333-210.133333 469.333333-469.333333S771.2 42.666667 512 42.666667 42.666667 252.8 42.666667 512s210.133333 469.333333 469.333333 469.333333z m0-42.666666C276.352 938.666667 85.333333 747.648 85.333333 512S276.352 85.333333 512 85.333333s426.666667 191.018667 426.666667 426.666667-191.018667 426.666667-426.666667 426.666667z" p-id="3005" fill="#ffffff"></path><path d="M298.666667 533.333333h426.666666a21.333333 21.333333 0 1 0 0-42.666666H298.666667a21.333333 21.333333 0 0 0 0 42.666666z" p-id="3006" fill="#ffffff"></path><path d="M490.666667 298.666667v426.666666a21.333333 21.333333 0 1 0 42.666666 0V298.666667a21.333333 21.333333 0 1 0-42.666666 0z" p-id="3007" fill="#ffffff"></path></svg>