<?xml version="1.0" standalone="no"?><!DOCTYPE svg PUBLIC "-//W3C//DTD SVG 1.1//EN" "http://www.w3.org/Graphics/SVG/1.1/DTD/svg11.dtd"><svg t="1592194300839" class="icon" viewBox="0 0 1024 1024" version="1.1" xmlns="http://www.w3.org/2000/svg" p-id="2452" width="32" height="32" xmlns:xlink="http://www.w3.org/1999/xlink"><defs><style type="text/css"></style></defs><path d="M915.084916 719.854978 810.23287 719.854978 810.23287 614.985536c0-23.303752-17.479093-40.782845-40.782845-40.782845s-40.782845 17.479093-40.782845 40.782845l0 110.696148L612.144326 725.681684c-23.303752 0-40.782845 17.479093-40.782845 40.782845s17.479093 40.782845 40.782845 40.782845l110.696148 0 0 110.678752c0 23.303752 17.479093 40.782845 40.782845 40.782845s40.782845-17.479093 40.782845-40.782845L804.406165 807.247374 915.084916 807.247374c23.304775 0 40.782845-17.47807 40.782845-40.782845C961.694467 743.160777 938.390715 719.854978 915.084916 719.854978L915.084916 719.854978 915.084916 719.854978zM506.427586 825.749774 506.427586 825.749774 141.658835 825.749774c-13.524015 0-23.675212-10.151197-23.675212-23.710005L117.983623 139.732461c0-13.533224 10.151197-23.684422 23.675212-23.684422l646.381593 0c13.505595 0 23.657816 10.151197 23.657816 23.684422l0 357.988324 0 0 0 0c0 13.524015 10.169617 23.676236 23.711028 23.676236 13.522991 0 23.675212-10.152221 23.675212-23.676236l0 0 0 0L859.084485 116.049063c0-27.073612-23.675212-50.759057-50.758034-50.759057L117.9826 65.290005c-27.065426 0-50.758034 23.685445-50.758034 50.759057L67.224566 825.749774c0 27.048029 23.692608 50.740638 50.758034 50.740638L506.427586 876.490412l0 0c13.522991 0 23.675212-10.169617 23.675212-23.692608C530.101775 835.883575 519.949554 825.749774 506.427586 825.749774L506.427586 825.749774 506.427586 825.749774zM501.447155 708.202591c17.479093-34.95614 58.261938-58.261938 99.044784-58.261938l46.608527 0 0-52.43421c0-46.609551 29.131481-87.392396 69.913303-104.870466l0 0 0 0-58.260915-174.774559L454.838627 580.028373l-58.261938-93.218078L181.028495 708.202591 501.447155 708.202591 501.447155 708.202591 501.447155 708.202591zM396.577712 335.331301c0-34.94693-29.130458-64.078411-64.086597-64.078411s-64.087621 29.131481-64.087621 64.078411c0 34.957163 29.130458 64.087621 64.087621 64.087621S396.577712 370.288464 396.577712 335.331301L396.577712 335.331301 396.577712 335.331301zM396.577712 335.331301" p-id="2453" fill="#ffffff"></path></svg>