<?xml version="1.0" standalone="no"?><!DOCTYPE svg PUBLIC "-//W3C//DTD SVG 1.1//EN" "http://www.w3.org/Graphics/SVG/1.1/DTD/svg11.dtd"><svg t="1590652018105" class="icon" viewBox="0 0 1024 1024" version="1.1" xmlns="http://www.w3.org/2000/svg" p-id="29298" width="32" height="32" xmlns:xlink="http://www.w3.org/1999/xlink"><defs><style type="text/css"></style></defs><path d="M851.6 661.5l-3.1-306.7c-0.1-6-0.9-11.8-2.3-17.4l-0.1-8.7c-0.1-8.9-4.9-17.1-12.7-21.5l-7.6-4.3c-4.2-4-9-7.5-14.1-10.4L544.5 141.8c-5.2-2.9-10.6-5.2-16.3-6.7l-8.4-4.7c-7.8-4.4-17.3-4.3-25 0.3l-10 5.9c-4.4 1.6-8.7 3.5-12.9 6L208 298.5c-4.1 2.4-7.9 5.2-11.4 8.4l-11.5 6.8c-7.7 4.5-12.4 12.8-12.3 21.8l0.2 16.5c-0.4 3.2-0.6 6.4-0.6 9.6l3.1 306.7c0 3.2 0.3 6.5 0.7 9.6l0.2 17.4c0.1 8.9 4.9 17.1 12.7 21.5l15.1 8.5c2.6 1.9 5.3 3.7 8.1 5.3l267.1 150.7c2.8 1.6 5.8 3 8.7 4.2l14.4 8.1c3.8 2.2 8 3.2 12.3 3.2 4.4 0 8.8-1.2 12.7-3.5l11.5-6.8c4.4-1.6 8.8-3.5 12.9-6l264.1-156c4.1-2.4 8-5.3 11.5-8.4l9.9-5.9c7.7-4.5 12.4-12.8 12.3-21.8l-0.1-9.6c1.4-5.5 2.1-11.3 2-17.3z m-55 14.9L519.1 840.3c-3.3 0.6-6.8 0.4-10.1-0.5L232.6 684c-3.1-2.9-5.4-6.7-6.4-10.9L223 355.8c0.8-3.3 2.3-6.5 4.5-9.1l277.4-163.9c1.3-0.2 2.7-0.4 4-0.4 0.5 0 1.1 0 1.6 0.1l283.8 160.1c0.7 1 1.4 2.1 1.9 3.2l3.3 325.8c-0.7 1.7-1.8 3.3-2.9 4.8z" p-id="29299" fill="#04ae92"></path><path d="M681.7 426.2c-0.1-8.9-4.9-17.1-12.7-21.5L472.4 293.8c-12-6.8-27.3-2.5-34.1 9.5s-2.5 27.3 9.5 34.1l184 103.8 2.1 211.2c0.1 13.7 11.3 24.7 25 24.7h0.3c13.8-0.1 24.9-11.4 24.7-25.2l-2.2-225.7z" p-id="29300" fill="#04ae92"></path><path d="M565.9 493.6c-0.1-8.9-4.9-17.1-12.7-21.5L360.8 363.6c-4.4-3.7-10.1-5.9-16.3-5.8-13.8 0.1-24.9 11.4-24.7 25.2l2.3 225.7c0.1 8.9 4.9 17.1 12.7 21.5L531.2 741c0.1 0 0.1 0.1 0.2 0.1 3.9 2.2 8.1 3.2 12.3 3.2 8.7 0 17.2-4.6 21.8-12.7 3.1-5.5 3.9-11.7 2.7-17.4l-2.3-220.6z m-195.7-67.3L516 508.5l1.7 167.5-145.8-82.2-1.7-167.5z" p-id="29301" fill="#04ae92"></path></svg>